<svg width="17" height="21" viewBox="0 0 17 21" fill="none" xmlns="http://www.w3.org/2000/svg">
<path d="M4.43229 13.7969H9.50521M1.39063 0.34375C1.1189 0.350545 0.860587 0.463285 0.670833 0.657904C0.48108 0.852522 0.374915 1.1136 0.375 1.38542V19.6667C0.374915 19.9385 0.48108 20.1996 0.670833 20.3942C0.860587 20.5888 1.1189 20.7015 1.39063 20.7083H15.6094C15.8856 20.7083 16.1506 20.5986 16.3459 20.4032C16.5413 20.2079 16.651 19.9429 16.651 19.6667V1.35937C16.6442 1.08765 16.5315 0.829337 16.3369 0.639583C16.1423 0.44983 15.8812 0.343665 15.6094 0.34375H14.5677V4.9375L12.5573 2.90104L10.5365 4.9375V0.34375H1.39063ZM4.43229 10.7604H13.0885H4.43229ZM4.43229 16.8437H11.0417H4.43229Z" stroke="white" stroke-width="0.520833" stroke-linecap="round" stroke-linejoin="round"/>
</svg>
